<svg width="70" height="70" fill="none" xmlns="http://www.w3.org/2000/svg"><path fill-rule="evenodd" clip-rule="evenodd" d="M35 70c19.33 0 35-15.67 35-35S54.33 0 35 0 0 15.67 0 35s15.67 35 35 35z" fill="#F1F0F0"/><mask id="a" maskUnits="userSpaceOnUse" x="0" y="0" width="70" height="70"><path fill-rule="evenodd" clip-rule="evenodd" d="M35 70c19.33 0 35-15.67 35-35S54.33 0 35 0 0 15.67 0 35s15.67 35 35 35z" fill="#fff"/></mask><g mask="url(#a)"><path d="M49.913 38.203h.785V22.809a3.7 3.7 0 00-3.701-3.7H23.675a3.701 3.701 0 00-3.701 3.7v15.394h29.939z" fill="#886653" stroke="#363A4F" stroke-width="1.57"/><path d="M54.734 84.452h.628V66.149c0-6.416-5.202-11.618-11.618-11.618H26.659c-6.417 0-11.62 5.202-11.62 11.618v18.303h39.695z" fill="#D5C5A9" stroke="#363A50" stroke-width="1.256"/><mask id="b" maskUnits="userSpaceOnUse" x="14" y="53" width="42" height="33"><path d="M54.734 84.452h.628V66.149c0-6.416-5.202-11.618-11.618-11.618H26.659c-6.417 0-11.62 5.202-11.62 11.618v18.303h39.695z" fill="#fff" stroke="#fff" stroke-width="1.256"/></mask><g mask="url(#b)"><rect x="16.273" y="55.406" width="4.934" height="29.719" rx="2.467" fill="#405852" fill-opacity=".3"/><rect x="25.244" y="54.043" width="4.934" height="29.719" rx="2.467" fill="#405852" fill-opacity=".3"/><rect x="39.82" y="54.043" width="4.934" height="29.719" rx="2.467" fill="#405852" fill-opacity=".3"/><rect x="49.127" y="54.043" width="4.934" height="29.719" rx="2.467" fill="#405852" fill-opacity=".3"/><path fill-rule="evenodd" clip-rule="evenodd" d="M14.786 62.081a1.248 1.248 0 010-2.496h43.538a1.248 1.248 0 010 2.496H14.786zm0 5.117a1.248 1.248 0 010-2.496h43.538a1.248 1.248 0 010 2.496H14.786zm0 5.242a1.248 1.248 0 110-2.497h43.538a1.248 1.248 0 010 2.496H14.786z" fill="#405852" fill-opacity=".3"/><path fill="#D8D8D8" stroke="#363A50" stroke-width="1.121" d="M29.729 56.289h11.213v26.987H29.729z"/><path fill="#000" fill-opacity=".1" d="M53.904 68.077h4.237v16.848h-4.237z"/><path fill-rule="evenodd" clip-rule="evenodd" d="M43.497 56.045s8.723.998 11.34 11.232l4.361-.999-1.37-9.734-5.982-4.617-6.853-.375-2.243.25.747 4.243z" fill="#000" fill-opacity=".1"/></g><path d="M38.593 57.161l-.501.25.129.26.283.044s0 0 0 0l.013.002.07.016c.064.016.163.043.287.088.249.088.594.243.966.505.735.517 1.604 1.472 2.02 3.24.06.257.134.488.235.666.078.136.312.479.744.425a.728.728 0 00.413-.203c.084-.081.147-.174.193-.255.091-.163.165-.365.225-.575.241-.842.404-2.285.39-3.818-.015-1.533-.206-3.232-.721-4.57-.51-1.323-1.422-2.477-2.952-2.477-1.296 0-2.198.408-2.724 1.149-.503.709-.572 1.602-.497 2.386.077.797.31 1.577.519 2.147a11.442 11.442 0 00.396.949l.007.015.002.004.001.002h0l.502-.25zm4.487 4.532l-.006-.01.006.01z" fill="#39ADB1" stroke="#363A50" stroke-width="1.121"/><mask id="c" maskUnits="userSpaceOnUse" x="36" y="50" width="9" height="14"><path d="M38.593 57.161l-.501.25.129.26.283.044s0 0 0 0l.013.002.07.016c.064.016.163.043.287.088.249.088.594.243.966.505.735.517 1.604 1.472 2.02 3.24.06.257.134.488.235.666.078.136.312.479.744.425a.728.728 0 00.413-.203c.084-.081.147-.174.193-.255.091-.163.165-.365.225-.575.241-.842.404-2.285.39-3.818-.015-1.533-.206-3.232-.721-4.57-.51-1.323-1.422-2.477-2.952-2.477-1.296 0-2.198.408-2.724 1.149-.503.709-.572 1.602-.497 2.386.077.797.31 1.577.519 2.147a11.442 11.442 0 00.396.949l.007.015.002.004.001.002h0l.502-.25zm4.487 4.532l-.006-.01.006.01z" fill="#fff" stroke="#fff" stroke-width="1.121"/></mask><g mask="url(#c)" fill-rule="evenodd" clip-rule="evenodd"><path d="M38.593 57.161s2.916.458 3.813 4.278c.897 3.82 2.69-10.12-2.019-10.12s-1.794 5.842-1.794 5.842z" fill="#BAAC94"/><path d="M38.154 53.779l13.043 9.146-.965 1.38L37.19 55.16l.965-1.38zm1.121-2.359l13.043 9.146-.965 1.38L38.31 52.8l.965-1.38z" fill="#000" fill-opacity=".1"/><path d="M41.179 51.24s1.12 5.391-.785 8.087c-1.907 2.696.56 2.584.56 2.584s2.58-3.008.897-11.546c-1.681-8.537-.672.874-.672.874z" fill="#000" fill-opacity=".1"/></g><path d="M32.189 57.161l.502.25-.13.26-.282.044s0 0 0 0l-.014.002a2.932 2.932 0 00-.357.103 4.07 4.07 0 00-.966.506c-.735.517-1.604 1.472-2.02 3.24a2.56 2.56 0 01-.235.666c-.077.136-.311.479-.744.425a.727.727 0 01-.413-.203 1.102 1.102 0 01-.192-.255 2.727 2.727 0 01-.226-.575c-.241-.842-.404-2.285-.39-3.818.015-1.533.206-3.232.721-4.57.51-1.323 1.422-2.477 2.952-2.477 1.296 0 2.198.408 2.724 1.149.504.709.572 1.602.497 2.386-.076.797-.31 1.577-.518 2.147a11.442 11.442 0 01-.397.949l-.007.015-.002.004v.002h-.001l-.502-.25zm-4.487 4.532l.006-.01a.058.058 0 00-.006.01z" fill="#39ADB1" stroke="#363A50" stroke-width="1.121"/><mask id="d" maskUnits="userSpaceOnUse" x="26" y="50" width="9" height="14"><path d="M32.189 57.161l.502.25-.13.26-.282.044s0 0 0 0l-.014.002a2.932 2.932 0 00-.357.103 4.07 4.07 0 00-.966.506c-.735.517-1.604 1.472-2.02 3.24a2.56 2.56 0 01-.235.666c-.077.136-.311.479-.744.425a.727.727 0 01-.413-.203 1.102 1.102 0 01-.192-.255 2.727 2.727 0 01-.226-.575c-.241-.842-.404-2.285-.39-3.818.015-1.533.206-3.232.721-4.57.51-1.323 1.422-2.477 2.952-2.477 1.296 0 2.198.408 2.724 1.149.504.709.572 1.602.497 2.386-.076.797-.31 1.577-.518 2.147a11.442 11.442 0 01-.397.949l-.007.015-.002.004v.002h-.001l-.502-.25zm-4.487 4.532l.006-.01a.058.058 0 00-.006.01z" fill="#fff" stroke="#fff" stroke-width="1.121"/></mask><g mask="url(#d)" fill-rule="evenodd" clip-rule="evenodd"><path d="M32.189 57.161s-2.916.458-3.813 4.278c-.897 3.82-2.69-10.12 2.019-10.12 4.71 0 1.794 5.842 1.794 5.842z" fill="#BAAC94"/><path d="M32.628 53.779l-13.043 9.146.965 1.38 13.043-9.146-.965-1.38zm-1.121-2.359l-13.043 9.146.965 1.38L32.472 52.8l-.965-1.38z" fill="#000" fill-opacity=".1"/><path d="M29.604 51.24s-1.122 5.391.785 8.087c1.906 2.696-.561 2.584-.561 2.584s-2.58-3.008-.897-11.546c1.682-8.537.673.874.673.874z" fill="#000" fill-opacity=".1"/></g><path fill-rule="evenodd" clip-rule="evenodd" d="M49.87 40.349a4.87 4.87 0 004.863-4.877 4.87 4.87 0 00-4.863-4.877 4.87 4.87 0 00-4.864 4.877 4.87 4.87 0 004.864 4.877z" fill="#F9CCB6"/><mask id="e" maskUnits="userSpaceOnUse" x="45" y="30" width="10" height="11"><path fill-rule="evenodd" clip-rule="evenodd" d="M49.87 40.349a4.87 4.87 0 004.863-4.877 4.87 4.87 0 00-4.863-4.877 4.87 4.87 0 00-4.864 4.877 4.87 4.87 0 004.864 4.877z" fill="#fff"/></mask><g mask="url(#e)"><path d="M53.948 35.472a4.085 4.085 0 01-4.078 4.092 4.085 4.085 0 01-4.08-4.092 4.085 4.085 0 014.08-4.092c2.25 0 4.078 1.83 4.078 4.092z" fill="#F9CCB6" stroke="#363A50" stroke-width="1.57"/><path fill-rule="evenodd" clip-rule="evenodd" d="M50.365 37.833c.963 0 1.744-.782 1.744-1.747a1.746 1.746 0 10-3.489 0c0 .965.781 1.747 1.745 1.747z" fill="#000" fill-opacity=".1"/></g><path fill-rule="evenodd" clip-rule="evenodd" d="M19.904 40.349a4.87 4.87 0 004.863-4.877 4.87 4.87 0 00-4.863-4.877 4.87 4.87 0 00-4.864 4.877 4.87 4.87 0 004.864 4.877z" fill="#F9CCB6"/><mask id="f" maskUnits="userSpaceOnUse" x="15" y="30" width="10" height="11"><path fill-rule="evenodd" clip-rule="evenodd" d="M19.904 40.349a4.87 4.87 0 004.863-4.877 4.87 4.87 0 00-4.863-4.877 4.87 4.87 0 00-4.864 4.877 4.87 4.87 0 004.864 4.877z" fill="#fff"/></mask><g mask="url(#f)"><path d="M23.982 35.472a4.085 4.085 0 01-4.078 4.092 4.085 4.085 0 01-4.079-4.092 4.085 4.085 0 014.079-4.092c2.25 0 4.078 1.83 4.078 4.092z" fill="#F9CCB6" stroke="#363A50" stroke-width="1.57"/><path fill-rule="evenodd" clip-rule="evenodd" d="M19.775 37.459c.963 0 1.744-.782 1.744-1.747a1.745 1.745 0 10-3.489 0c0 .965.781 1.747 1.745 1.747z" fill="#000" fill-opacity=".1"/></g><rect x="31.749" y="46.069" width="7.401" height="12.433" rx="3.701" fill="#F9CCB6" stroke="#363A50" stroke-width="1.234"/><mask id="g" maskUnits="userSpaceOnUse" x="31" y="45" width="9" height="15"><rect x="31.749" y="46.069" width="7.401" height="12.433" rx="3.701" fill="#fff" stroke="#fff" stroke-width="1.234"/></mask><g mask="url(#g)"><rect x="30.572" y="45.562" width="9.727" height="13.057" rx="4.864" fill="#F9CCB6"/><path fill-rule="evenodd" clip-rule="evenodd" d="M37.336 50.43s1.346 4.27-2.13 6.516c-3.476 2.247.672 2.134.672 2.134l4.598-3.82.112-4.156-3.252-.674z" fill="#000" fill-opacity=".1"/></g><path d="M18.564 36.442c-.008.222-.016.401-.024.535l-.171.1.155.473 2.297 6.998a11.453 11.453 0 0010.254 7.863l.019.001h.019l-.004-.617.004.617h.08l.229-.002.826-.007c.689-.005 1.621-.014 2.594-.025 1.935-.022 4.066-.054 4.74-.097l.074-.005.071-.023 2.131-.67a12.897 12.897 0 009.013-11.75l.522-12.154c.393-9.178-7.46-15.381-16.453-15.399-8.675-1.045-16.294 5.759-16.298 14.497-.002 2.79-.01 5.417-.034 7.353-.011.968-.026 1.76-.044 2.312z" fill="#F9CCB6" stroke="#363A50" stroke-width="1.234"/><mask id="h" maskUnits="userSpaceOnUse" x="17" y="11" width="36" height="43"><path d="M18.564 36.442c-.008.222-.016.401-.024.535l-.171.1.155.473 2.297 6.998a11.453 11.453 0 0010.254 7.863l.019.001h.019l-.004-.617.004.617h.08l.229-.002.826-.007c.689-.005 1.621-.014 2.594-.025 1.935-.022 4.066-.054 4.74-.097l.074-.005.071-.023 2.131-.67a12.897 12.897 0 009.013-11.75l.522-12.154c.393-9.178-7.46-15.381-16.453-15.399-8.675-1.045-16.294 5.759-16.298 14.497-.002 2.79-.01 5.417-.034 7.353-.011.968-.026 1.76-.044 2.312z" fill="#fff" stroke="#fff" stroke-width="1.234"/></mask><g mask="url(#h)" fill-rule="evenodd" clip-rule="evenodd"><path opacity=".05" d="M31.339 32.005a2.442 2.442 0 00-2.374-3.017h-3.49a3.134 3.134 0 00-3.134 3.134 4.353 4.353 0 004.354 4.354h.13a4.361 4.361 0 004.239-3.335l.275-1.136zm14.953 0a2.442 2.442 0 00-2.374-3.017h-3.49a3.134 3.134 0 00-3.134 3.134 4.353 4.353 0 004.354 4.354h.13a4.361 4.361 0 004.239-3.335l.275-1.136z" fill="#000"/><path d="M27.508 50.838a.187.187 0 10-.014-.373.187.187 0 00.014.373zm.61-.395a.187.187 0 10-.014-.374.187.187 0 00.014.373zm.03.873a.187.187 0 10-.013-.374.187.187 0 00.013.373zm.61-.396a.187.187 0 10-.014-.374.187.187 0 00.014.374zm.609-.396a.187.187 0 10-.014-.374.187.187 0 00.014.374zm.031.873a.187.187 0 10-.013-.374.187.187 0 00.013.374zm-1.22.792a.187.187 0 10-.013-.374.187.187 0 00.013.374zm.611-.396a.187.187 0 10-.014-.374.187.187 0 00.014.374zm.03.873a.187.187 0 10-.013-.374.187.187 0 00.013.374zm.609-.396a.187.187 0 10-.013-.374.187.187 0 00.013.374zm.61-.396a.187.187 0 10-.014-.374.187.187 0 00.014.374zm.031.873a.187.187 0 10-.013-.374.187.187 0 00.013.374zm-.066-1.871a.187.187 0 10-.014-.374.187.187 0 00.014.374zm.61-.396a.187.187 0 10-.013-.374.187.187 0 00.013.374zm.03.873a.187.187 0 10-.013-.374.187.187 0 00.013.374zm.61-.396a.187.187 0 10-.014-.374.187.187 0 00.014.374zm.609-.396a.187.187 0 10-.013-.373.187.187 0 00.013.373zm.031.873a.187.187 0 10-.013-.373.187.187 0 00.013.373zm-1.219.792a.187.187 0 10-.014-.374.187.187 0 00.014.374zm.61-.396a.187.187 0 10-.014-.373.187.187 0 00.014.373zm.03.873a.187.187 0 10-.013-.373.187.187 0 00.013.373zm.61-.396a.187.187 0 10-.014-.373.187.187 0 00.014.373zm.609-.395a.187.187 0 10-.013-.374.187.187 0 00.013.374zm.031.873a.187.187 0 10-.013-.374.187.187 0 00.013.374zm-.066-1.871a.187.187 0 10-.013-.374.187.187 0 00.013.374zm.61-.396a.187.187 0 10-.013-.374.187.187 0 00.013.374zm.03.873a.187.187 0 10-.013-.374.187.187 0 00.013.374zm.61-.396a.187.187 0 10-.014-.374.187.187 0 00.014.374zm.609-.395a.187.187 0 10-.013-.375.187.187 0 00.013.374zm.031.872a.187.187 0 10-.013-.374.187.187 0 00.013.374zm-1.219.792a.187.187 0 10-.014-.374.187.187 0 00.014.374zm.61-.396a.187.187 0 10-.013-.374.187.187 0 00.013.374zm.031.873a.187.187 0 10-.014-.374.187.187 0 00.013.374zm.609-.396a.187.187 0 10-.014-.374.187.187 0 00.014.374zm.609-.395a.187.187 0 10-.013-.375.187.187 0 00.013.374zm.032.872a.187.187 0 10-.014-.374.187.187 0 00.013.374zm-.067-1.87a.187.187 0 10-.014-.374.187.187 0 00.014.374zm.609-.396a.187.187 0 10-.013-.374.187.187 0 00.013.374zm.031.873a.187.187 0 10-.014-.374.187.187 0 00.014.374zm.61-.396a.187.187 0 10-.014-.374.187.187 0 00.014.374zm.609-.396a.187.187 0 10-.013-.374.187.187 0 00.013.374zm.031.873a.187.187 0 10-.014-.374.187.187 0 00.014.374zm-1.215.916a.187.187 0 10-.014-.373.187.187 0 00.014.373zm.61-.396a.187.187 0 10-.013-.373.187.187 0 00.013.374zm.03.874a.187.187 0 10-.013-.374.187.187 0 00.013.374zm.61-.396a.187.187 0 10-.014-.374.187.187 0 00.014.374zm.609-.396a.187.187 0 10-.013-.374.187.187 0 00.013.374zm.031.873a.187.187 0 10-.013-.374.187.187 0 00.013.374zm.054-2a.187.187 0 10-.014-.374.187.187 0 00.014.374zm.61-.395a.187.187 0 10-.013-.375.187.187 0 00.013.374zm.031.872a.187.187 0 10-.014-.374.187.187 0 00.014.374zm.609-.396a.187.187 0 10-.013-.374.187.187 0 00.013.374zm.609-.396a.187.187 0 10-.013-.374.187.187 0 00.013.374zm.032.873a.187.187 0 10-.014-.374.187.187 0 00.014.374zm-1.336 1.046a.187.187 0 10-.014-.374.187.187 0 00.014.374zm.61-.396a.187.187 0 10-.013-.374.187.187 0 00.013.374zm.03.873a.187.187 0 10-.013-.374.187.187 0 00.013.374zm.61-.396a.187.187 0 10-.014-.374.187.187 0 00.014.374zm.609-.396a.187.187 0 10-.013-.374.187.187 0 00.013.374zm.031.873a.187.187 0 10-.013-.374.187.187 0 00.013.374zm.175-2.129a.187.187 0 10-.013-.374.187.187 0 00.013.374zm.61-.395a.187.187 0 10-.014-.374.187.187 0 00.014.373zm.03.873a.187.187 0 10-.014-.374.187.187 0 00.014.374zm.61-.396a.187.187 0 10-.013-.374.187.187 0 00.013.374zm.61-.396a.187.187 0 10-.014-.374.187.187 0 00.014.374zm.03.873a.187.187 0 10-.013-.374.187.187 0 00.013.374z" opacity=".1" fill="#000"/><path d="M28.131 49.091a.187.187 0 10-.013-.374.187.187 0 00.014.374zm.611-.396a.187.187 0 10-.013-.373.187.187 0 00.013.373zm.03.873a.187.187 0 10-.013-.374.187.187 0 00.013.374zm.609-.396a.187.187 0 10-.013-.374.187.187 0 00.014.374zm.609-.395a.187.187 0 10-.012-.374.187.187 0 00.013.374zm.032.873a.187.187 0 10-.013-.374.187.187 0 00.013.374zm-1.22.791a.187.187 0 10-.013-.374.187.187 0 00.013.374zm.611-.395a.187.187 0 10-.014-.374.187.187 0 00.014.374zm.03.873a.187.187 0 10-.013-.374.187.187 0 00.013.374zm.609-.396a.187.187 0 10-.013-.374.187.187 0 00.013.374zm.61-.396a.187.187 0 10-.014-.374.187.187 0 00.014.374zm.031.873a.187.187 0 10-.013-.374.187.187 0 00.013.374zm-.066-1.871a.187.187 0 10-.014-.374.187.187 0 00.014.374zm.61-.396a.187.187 0 10-.013-.374.187.187 0 00.013.374zm.03.873a.187.187 0 10-.013-.374.187.187 0 00.013.374zm.61-.396a.187.187 0 10-.014-.374.187.187 0 00.014.374zm.609-.396a.187.187 0 10-.013-.374.187.187 0 00.013.374zm.031.873a.187.187 0 10-.013-.373.187.187 0 00.013.373zm-1.22.793a.187.187 0 10-.013-.375.187.187 0 00.014.374zm.611-.397a.187.187 0 10-.013-.373.187.187 0 00.013.373zm.03.873a.187.187 0 10-.013-.374.187.187 0 00.013.374zm.609-.396a.187.187 0 10-.013-.374.187.187 0 00.014.374zm.61-.396a.187.187 0 10-.013-.373.187.187 0 00.013.373zm.031.874a.187.187 0 10-.013-.374.187.187 0 00.013.374zm-.066-1.871a.187.187 0 10-.014-.374.187.187 0 00.014.374zm.61-.397a.187.187 0 10-.013-.373.187.187 0 00.013.374zm.03.874a.187.187 0 10-.013-.374.187.187 0 00.013.374zm.61-.396a.187.187 0 10-.014-.374.187.187 0 00.014.374zm.609-.396a.187.187 0 10-.013-.374.187.187 0 00.013.374zm.031.873a.187.187 0 10-.013-.374.187.187 0 00.013.374zm-1.219.792a.187.187 0 10-.014-.374.187.187 0 00.014.374zm.61-.396a.187.187 0 10-.013-.374.187.187 0 00.013.374zm.03.873a.187.187 0 10-.013-.374.187.187 0 00.013.374zm.61-.396a.187.187 0 10-.014-.374.187.187 0 00.014.374zm.609-.396a.187.187 0 10-.013-.374.187.187 0 00.013.374zm.031.873a.187.187 0 10-.013-.374.187.187 0 00.013.374zm-.066-1.871a.187.187 0 10-.013-.373.187.187 0 00.013.373zm.61-.395a.187.187 0 10-.013-.374.187.187 0 00.013.374zm.031.873a.187.187 0 10-.014-.374.187.187 0 00.014.374zm.609-.396a.187.187 0 10-.014-.374.187.187 0 00.014.374zm.609-.396a.187.187 0 10-.013-.374.187.187 0 00.013.374zm.032.873a.187.187 0 10-.014-.374.187.187 0 00.014.374zm-1.216.917a.187.187 0 10-.014-.374.187.187 0 00.014.373zm.61-.397a.187.187 0 10-.013-.373.187.187 0 00.013.373zm.03.874a.187.187 0 10-.013-.374.187.187 0 00.013.373zm.61-.397a.187.187 0 10-.014-.373.187.187 0 00.014.374zm.609-.395a.187.187 0 10-.013-.374.187.187 0 00.013.374zm.031.873a.187.187 0 10-.013-.374.187.187 0 00.013.374zm.054-2a.187.187 0 10-.013-.374.187.187 0 00.013.374zm.61-.396a.187.187 0 10-.013-.374.187.187 0 00.013.374zm.031.873a.187.187 0 10-.014-.374.187.187 0 00.014.374zm.609-.395a.187.187 0 10-.013-.375.187.187 0 00.013.374zm.609-.397a.187.187 0 10-.013-.374.187.187 0 00.013.374zm.032.873a.187.187 0 10-.014-.374.187.187 0 00.014.374zm-1.337 1.046a.187.187 0 10-.013-.374.187.187 0 00.014.374zm.611-.396a.187.187 0 10-.013-.374.187.187 0 00.013.374zm.03.873a.187.187 0 10-.013-.374.187.187 0 00.013.374zm.609-.396a.187.187 0 10-.013-.374.187.187 0 00.014.374zm.61-.396a.187.187 0 10-.013-.374.187.187 0 00.013.374zm.031.873a.187.187 0 10-.013-.374.187.187 0 00.013.374zm.175-2.129a.187.187 0 10-.013-.374.187.187 0 00.013.374zm.611-.396a.187.187 0 10-.014-.373.187.187 0 00.014.373zm.03.873a.187.187 0 10-.013-.373.187.187 0 00.013.373zm.609-.396a.187.187 0 10-.013-.373.187.187 0 00.013.373zm.609-.395a.187.187 0 10-.013-.374.187.187 0 00.014.374zm.032.873a.187.187 0 10-.014-.374.187.187 0 00.014.374z" opacity=".1" fill="#000"/><g opacity=".1" fill="#000"><path d="M28.522 44.576a.187.187 0 10-.013-.373.187.187 0 00.013.373zm.609-.396a.187.187 0 10-.013-.373.187.187 0 00.014.373zm.611-.395a.187.187 0 10-.013-.374.187.187 0 00.013.374zm.03.873a.187.187 0 10-.013-.374.187.187 0 00.013.374zm-1.22.792a.187.187 0 10-.013-.374.187.187 0 00.013.373zm.611-.396a.187.187 0 10-.014-.374.187.187 0 00.014.374zm.03.873a.187.187 0 10-.013-.374.187.187 0 00.013.374zm.609-.397a.187.187 0 10-.013-.373.187.187 0 00.013.374zm.61-.395a.187.187 0 10-.014-.374.187.187 0 00.014.374zm.031.873a.187.187 0 10-.013-.374.187.187 0 00.013.374zm-.066-1.871a.187.187 0 10-.014-.374.187.187 0 00.014.374zm.61-.396a.187.187 0 10-.013-.374.187.187 0 00.013.374zm.03.873a.187.187 0 10-.013-.374.187.187 0 00.013.374zm.61-.396a.187.187 0 10-.014-.374.187.187 0 00.014.374zm.609-.396a.187.187 0 10-.013-.374.187.187 0 00.013.374zm.031.873a.187.187 0 10-.013-.373.187.187 0 00.013.373zm-1.22.792a.187.187 0 10-.013-.374.187.187 0 00.014.374zm.611-.396a.187.187 0 10-.013-.373.187.187 0 00.013.373zm.03.873a.187.187 0 10-.013-.374.187.187 0 00.013.374zm.609-.396a.187.187 0 10-.013-.373.187.187 0 00.014.373zm.61-.395a.187.187 0 10-.013-.374.187.187 0 00.013.374zm.031.873a.187.187 0 10-.013-.374.187.187 0 00.013.374zm-.066-1.871a.187.187 0 10-.014-.374.187.187 0 00.014.374zm.61-.396a.187.187 0 10-.013-.374.187.187 0 00.013.374zm.03.873a.187.187 0 10-.013-.374.187.187 0 00.013.374zm.61-.396a.187.187 0 10-.014-.374.187.187 0 00.014.374zm.609-.396a.187.187 0 10-.013-.374.187.187 0 00.013.374zm.031.873a.187.187 0 10-.013-.374.187.187 0 00.013.374zm-1.22.792a.187.187 0 10-.014-.374.187.187 0 00.014.374zm.61-.395a.187.187 0 10-.013-.375.187.187 0 00.013.374zm.03.872a.187.187 0 10-.013-.374.187.187 0 00.013.374zm.61-.396a.187.187 0 10-.014-.374.187.187 0 00.014.374zm.609-.396a.187.187 0 10-.013-.374.187.187 0 00.013.374zm.031.873a.187.187 0 10-.013-.373.187.187 0 00.013.373zm-.065-1.871a.187.187 0 10-.014-.373.187.187 0 00.014.373zm.61-.395a.187.187 0 10-.013-.374.187.187 0 00.013.374zm.031.873a.187.187 0 10-.014-.374.187.187 0 00.014.374zm.609-.396a.187.187 0 10-.014-.374.187.187 0 00.014.374zm.609-.396a.187.187 0 10-.013-.374.187.187 0 00.013.374zm.032.872a.187.187 0 10-.014-.373.187.187 0 00.014.374zm-1.216.917a.187.187 0 10-.014-.373.187.187 0 00.014.373zm.61-.396a.187.187 0 10-.013-.373.187.187 0 00.013.373zm.03.874a.187.187 0 10-.013-.374.187.187 0 00.013.374zm.61-.396a.187.187 0 10-.014-.374.187.187 0 00.014.374zm.609-.396a.187.187 0 10-.013-.374.187.187 0 00.013.374zm.031.873a.187.187 0 10-.013-.374.187.187 0 00.013.374zm.054-2a.187.187 0 10-.013-.374.187.187 0 00.013.374zm.61-.396a.187.187 0 10-.013-.374.187.187 0 00.013.374zm.031.873a.187.187 0 10-.014-.374.187.187 0 00.014.374zm.609-.396a.187.187 0 10-.013-.374.187.187 0 00.013.374zm.609-.396a.187.187 0 10-.013-.373.187.187 0 00.013.373zm.032.873a.187.187 0 10-.014-.374.187.187 0 00.014.374zM38.54 45.85a.187.187 0 10-.013-.374.187.187 0 00.014.374zm.611-.396a.187.187 0 10-.013-.374.187.187 0 00.013.374zm.03.873a.187.187 0 10-.013-.374.187.187 0 00.013.374zm.609-.396a.187.187 0 10-.013-.374.187.187 0 00.014.374zm.61-.396a.187.187 0 10-.013-.374.187.187 0 00.013.374zm.031.873a.187.187 0 10-.013-.374.187.187 0 00.013.374zm.175-2.128a.187.187 0 10-.013-.375.187.187 0 00.013.374zm.609-.397a.187.187 0 10-.013-.374.187.187 0 00.014.374zm.031.874a.187.187 0 10-.014-.374.187.187 0 00.014.373zm.61-.397a.187.187 0 10-.013-.373.187.187 0 00.013.374zm.64.478a.187.187 0 10-.014-.374.187.187 0 00.014.374z"/><path d="M40.606 45.527a.187.187 0 10-.013-.374.187.187 0 00.013.374zm.609-.396a.187.187 0 10-.013-.374.187.187 0 00.014.374zm.031.874a.187.187 0 10-.014-.374.187.187 0 00.014.373zm.61-.397a.187.187 0 10-.013-.373.187.187 0 00.013.373zm.609-.395a.187.187 0 10-.013-.374.187.187 0 00.014.374zm.031.873a.187.187 0 10-.014-.374.187.187 0 00.014.374zm-1.89 1.937a.187.187 0 10-.013-.374.187.187 0 00.013.374zm.611-.396a.187.187 0 10-.014-.373.187.187 0 00.014.373zm.03.873a.187.187 0 10-.014-.374.187.187 0 00.014.374zm.609-.395a.187.187 0 10-.013-.374.187.187 0 00.013.373zm.609-.396a.187.187 0 10-.013-.374.187.187 0 00.014.374zm.032.873a.187.187 0 10-.014-.374.187.187 0 00.014.374z"/></g><path d="M28.493 46.2a.187.187 0 10-.014-.375.187.187 0 00.014.374zm.03.872a.187.187 0 10-.013-.374.187.187 0 00.013.374zm.61-.396a.187.187 0 10-.014-.373.187.187 0 00.014.373zm.609-.396a.187.187 0 10-.014-.373.187.187 0 00.014.374zm.03.874a.187.187 0 10-.013-.374.187.187 0 00.013.374zm-1.22.791a.187.187 0 10-.013-.374.187.187 0 00.013.374zm.611-.395a.187.187 0 10-.014-.374.187.187 0 00.014.373zm.03.873a.187.187 0 10-.013-.374.187.187 0 00.013.374zm.609-.396a.187.187 0 10-.013-.374.187.187 0 00.013.374zm.61-.397a.187.187 0 10-.014-.373.187.187 0 00.014.374zm.031.874a.187.187 0 10-.013-.374.187.187 0 00.013.374zm-.066-1.871a.187.187 0 10-.014-.374.187.187 0 00.014.374zm.61-.396a.187.187 0 10-.013-.374.187.187 0 00.013.374zm.03.873a.187.187 0 10-.013-.374.187.187 0 00.013.374zm.61-.396a.187.187 0 10-.014-.374.187.187 0 00.014.374zm.609-.396a.187.187 0 10-.013-.374.187.187 0 00.013.374zm.031.873a.187.187 0 10-.013-.373.187.187 0 00.013.373zm-1.22.792a.187.187 0 10-.013-.374.187.187 0 00.014.374zm.611-.396a.187.187 0 10-.013-.373.187.187 0 00.013.373zm.03.873a.187.187 0 10-.013-.374.187.187 0 00.013.374zm.609-.396a.187.187 0 10-.013-.374.187.187 0 00.014.374zm.61-.395a.187.187 0 10-.013-.374.187.187 0 00.013.373zm.031.873a.187.187 0 10-.013-.374.187.187 0 00.013.374zm-.066-1.872a.187.187 0 10-.013-.373.187.187 0 00.013.374zm.61-.395a.187.187 0 10-.013-.374.187.187 0 00.013.374zm.03.873a.187.187 0 10-.013-.374.187.187 0 00.013.374zm.61-.396a.187.187 0 10-.014-.374.187.187 0 00.014.374zm.609-.396a.187.187 0 10-.013-.374.187.187 0 00.013.374zm.031.874a.187.187 0 10-.013-.375.187.187 0 00.013.374zm-1.219.79a.187.187 0 10-.014-.373.187.187 0 00.014.374zm.61-.395a.187.187 0 10-.013-.374.187.187 0 00.013.374zm.03.873a.187.187 0 10-.013-.374.187.187 0 00.013.374zm.61-.396a.187.187 0 10-.014-.374.187.187 0 00.014.374zm.609-.396a.187.187 0 10-.013-.374.187.187 0 00.013.374zm.031.874a.187.187 0 10-.013-.375.187.187 0 00.013.374zm-.066-1.871a.187.187 0 10-.014-.374.187.187 0 00.014.373zm.61-.396a.187.187 0 10-.013-.374.187.187 0 00.013.374zm.031.873a.187.187 0 10-.014-.374.187.187 0 00.014.374zm.609-.396a.187.187 0 10-.014-.374.187.187 0 00.014.374zm.609-.396a.187.187 0 10-.013-.374.187.187 0 00.013.374zm.032.873a.187.187 0 10-.014-.374.187.187 0 00.014.374zm-1.216.916a.187.187 0 10-.014-.373.187.187 0 00.014.373zm.61-.395a.187.187 0 10-.013-.374.187.187 0 00.013.373zm.03.872a.187.187 0 10-.013-.373.187.187 0 00.013.373zm.61-.395a.187.187 0 10-.014-.374.187.187 0 00.014.374zm.609-.396a.187.187 0 10-.013-.374.187.187 0 00.013.374zm.031.873a.187.187 0 10-.013-.374.187.187 0 00.013.374zm.055-2a.187.187 0 10-.013-.374.187.187 0 00.013.374zm.61-.396a.187.187 0 10-.013-.374.187.187 0 00.013.374zm.031.873a.187.187 0 10-.014-.374.187.187 0 00.014.374zm.609-.396a.187.187 0 10-.013-.374.187.187 0 00.013.374zm.609-.396a.187.187 0 10-.013-.374.187.187 0 00.013.374zm.032.873a.187.187 0 10-.014-.374.187.187 0 00.014.374zm-1.336 1.046a.187.187 0 10-.014-.374.187.187 0 00.014.374zm.61-.396a.187.187 0 10-.013-.374.187.187 0 00.013.374zm.03.873a.187.187 0 10-.013-.374.187.187 0 00.013.374zm.61-.396a.187.187 0 10-.014-.374.187.187 0 00.014.374zm.609-.396a.187.187 0 10-.013-.374.187.187 0 00.013.374zm.031.873a.187.187 0 10-.013-.374.187.187 0 00.013.374zm.174-2.129a.187.187 0 10-.013-.374.187.187 0 00.013.374zm.611-.395a.187.187 0 10-.014-.374.187.187 0 00.014.373zm.03.872a.187.187 0 10-.014-.374.187.187 0 00.014.374zm.609-.396a.187.187 0 10-.013-.373.187.187 0 00.013.373zm.609-.396a.187.187 0 10-.013-.373.187.187 0 00.014.374zm.032.874a.187.187 0 10-.013-.374.187.187 0 00.013.374zm-2.155 5.154a.187.187 0 10-.274-.255.187.187 0 00.274.255zm.151-.711a.187.187 0 10-.274-.255.187.187 0 00.274.255zm.639.596a.187.187 0 10-.274-.255.187.187 0 00.274.255zm.151-.711a.187.187 0 10-.274-.255.187.187 0 00.274.255zm.151-.711a.187.187 0 10-.273-.255.187.187 0 00.273.255zm.639.596a.187.187 0 10-.274-.255.187.187 0 00.274.255zm-.303 1.422a.187.187 0 10-.273-.255.187.187 0 00.273.255zm.152-.711a.187.187 0 10-.274-.255.187.187 0 00.274.255zm.638.596a.187.187 0 10-.273-.255.187.187 0 00.273.255zm.152-.711a.187.187 0 10-.274-.255.187.187 0 00.274.255zm.151-.711a.187.187 0 10-.274-.255.187.187 0 00.274.255zm.639.595a.187.187 0 10-.274-.255.187.187 0 00.274.255zm-1.369-1.277a.187.187 0 10-.274-.254.187.187 0 00.274.255zm.151-.71a.187.187 0 10-.274-.255.187.187 0 00.274.255zm.639.596a.187.187 0 10-.274-.255.187.187 0 00.274.255zm.151-.711a.187.187 0 10-.274-.255.187.187 0 00.274.255zm.151-.711a.187.187 0 10-.273-.255.187.187 0 00.273.255zm.639.596a.187.187 0 10-.274-.256.187.187 0 00.274.255zm-.303 1.421a.187.187 0 10-.273-.255.187.187 0 00.273.255zm.152-.711a.187.187 0 10-.274-.255.187.187 0 00.274.255zm.639.596a.187.187 0 10-.274-.255.187.187 0 00.273.255zm.151-.711a.187.187 0 10-.274-.255.187.187 0 00.274.255zm.151-.711a.187.187 0 10-.274-.255.187.187 0 00.274.255zm.639.596a.187.187 0 10-.274-.255.187.187 0 00.274.255zm-1.369-1.277a.187.187 0 10-.274-.255.187.187 0 00.274.255zm.151-.711a.187.187 0 10-.274-.255.187.187 0 00.274.255zm.639.596a.187.187 0 10-.274-.255.187.187 0 00.274.255zm.151-.711a.187.187 0 10-.274-.255.187.187 0 00.274.255zm.152-.711a.187.187 0 10-.274-.255.187.187 0 00.273.255zm.638.596a.187.187 0 10-.274-.255.187.187 0 00.274.255zm-.303 1.422a.187.187 0 10-.273-.255.187.187 0 00.273.255zm.152-.711a.187.187 0 10-.274-.255.187.187 0 00.274.255zm.638.596a.187.187 0 10-.273-.255.187.187 0 00.273.255zm.152-.712a.187.187 0 10-.274-.254.187.187 0 00.274.255zm.151-.711a.187.187 0 10-.274-.254.187.187 0 00.274.255zm.639.596a.187.187 0 10-.274-.255.187.187 0 00.274.255zm-1.369-1.276a.187.187 0 10-.274-.255.187.187 0 00.274.255zm.151-.711a.187.187 0 10-.274-.255.187.187 0 00.274.255zm.639.595a.187.187 0 10-.274-.255.187.187 0 00.274.255zm.151-.71a.187.187 0 10-.273-.256.187.187 0 00.273.255zm.151-.712a.187.187 0 10-.273-.255.187.187 0 00.273.255zm.639.596a.187.187 0 10-.274-.255.187.187 0 00.274.255zm-.212 1.507a.187.187 0 10-.273-.255.187.187 0 00.273.255zm.152-.711a.187.187 0 10-.274-.255.187.187 0 00.274.255zm.638.596a.187.187 0 10-.274-.255.187.187 0 00.274.255zm.152-.711a.187.187 0 10-.274-.255.187.187 0 00.274.255zm.151-.711a.187.187 0 10-.274-.255.187.187 0 00.274.255zm.639.596a.187.187 0 10-.274-.255.187.187 0 00.274.255zm-1.376-1.453a.187.187 0 10-.273-.255.187.187 0 00.274.255zm.152-.711a.187.187 0 10-.274-.255.187.187 0 00.274.255zm.638.596a.187.187 0 10-.273-.255.187.187 0 00.274.255zm.152-.712a.187.187 0 10-.274-.254.187.187 0 00.274.255zm.152-.71a.187.187 0 10-.274-.255.187.187 0 00.274.255zm.638.595a.187.187 0 10-.274-.255.187.187 0 00.274.255zm-.205 1.684a.187.187 0 10-.274-.255.187.187 0 00.274.255zm.152-.711a.187.187 0 10-.274-.255.187.187 0 00.274.255zm.638.596a.187.187 0 10-.274-.255.187.187 0 00.274.255zm.152-.712a.187.187 0 10-.274-.254.187.187 0 00.274.255zm.151-.711a.187.187 0 10-.274-.254.187.187 0 00.274.255zm.639.596a.187.187 0 10-.274-.254.187.187 0 00.274.254zm-1.382-1.629a.187.187 0 10-.274-.255.187.187 0 00.274.255zm.151-.711a.187.187 0 10-.274-.255.187.187 0 00.274.255zm.639.596a.187.187 0 10-.274-.255.187.187 0 00.274.255zm.151-.711a.187.187 0 10-.274-.255.187.187 0 00.274.255zm.152-.712a.187.187 0 10-.274-.254.187.187 0 00.273.255zm.638.597a.187.187 0 10-.274-.255.187.187 0 00.274.255zm-21.01 9.811a.187.187 0 11.273-.255.187.187 0 01-.273.255zm-.152-.711a.187.187 0 11.274-.255.187.187 0 01-.274.255zm-.638.596a.187.187 0 11.273-.255.187.187 0 01-.273.255zm-.152-.711a.187.187 0 11.274-.255.187.187 0 01-.274.255zm-.151-.711a.187.187 0 11.273-.255.187.187 0 01-.273.255zm-.639.596a.187.187 0 11.274-.255.187.187 0 01-.274.255zm.303 1.422a.187.187 0 11.274-.255.187.187 0 01-.274.255zm-.151-.711a.187.187 0 11.273-.255.187.187 0 01-.273.255zm-.639.596a.187.187 0 11.274-.255.187.187 0 01-.274.255zm-.152-.711a.187.187 0 11.274-.255.187.187 0 01-.274.255zm-.151-.711a.187.187 0 11.274-.255.187.187 0 01-.274.255zm-.639.595a.187.187 0 11.274-.255.187.187 0 01-.274.255zm1.37-1.277a.187.187 0 11.273-.254.187.187 0 01-.273.255zm-.152-.71a.187.187 0 11.274-.255.187.187 0 01-.274.255zm-.638.596a.187.187 0 11.273-.255.187.187 0 01-.273.255zm-.152-.711a.187.187 0 11.274-.255.187.187 0 01-.274.255zm-.151-.711a.187.187 0 11.274-.255.187.187 0 01-.274.255zm-.639.596a.187.187 0 11.274-.256.187.187 0 01-.274.255zm.303 1.421a.187.187 0 11.273-.255.187.187 0 01-.273.255zm-.151-.711a.187.187 0 11.273-.255.187.187 0 01-.273.255zm-.639.596a.187.187 0 11.274-.255.187.187 0 01-.274.255zm-.152-.711a.187.187 0 11.274-.255.187.187 0 01-.274.255zm-.151-.711a.187.187 0 11.274-.255.187.187 0 01-.274.255zm-.639.596a.187.187 0 11.274-.255.187.187 0 01-.274.255zm1.369-1.277a.187.187 0 11.274-.255.187.187 0 01-.274.255zm-.151-.711a.187.187 0 11.274-.255.187.187 0 01-.274.255zm-.638.596a.187.187 0 11.273-.255.187.187 0 01-.273.255zm-.152-.711a.187.187 0 11.274-.255.187.187 0 01-.274.255zm-.151-.711a.187.187 0 11.274-.255.187.187 0 01-.274.255zm-.639.596a.187.187 0 11.274-.255.187.187 0 01-.274.255zm.303 1.422a.187.187 0 11.274-.255.187.187 0 01-.274.255zm-.151-.711a.187.187 0 11.273-.255.187.187 0 01-.273.255zm-.639.596a.187.187 0 11.273-.255.187.187 0 01-.273.255zm-.152-.712a.187.187 0 11.274-.254.187.187 0 01-.274.255zm-.151-.711a.187.187 0 11.274-.254.187.187 0 01-.274.255zm-.639.596a.187.187 0 11.274-.255.187.187 0 01-.274.255zm1.369-1.276a.187.187 0 11.274-.255.187.187 0 01-.274.255zm-.151-.711a.187.187 0 11.274-.255.187.187 0 01-.274.255zm-.639.595a.187.187 0 11.274-.255.187.187 0 01-.273.255zm-.151-.71a.187.187 0 11.274-.256.187.187 0 01-.274.255zm-.151-.712a.187.187 0 11.273-.255.187.187 0 01-.273.255zm-.639.596a.187.187 0 11.274-.255.187.187 0 01-.274.255zm.212 1.507a.187.187 0 11.274-.255.187.187 0 01-.274.255zm-.151-.711a.187.187 0 11.273-.255.187.187 0 01-.273.255zm-.639.596a.187.187 0 11.274-.255.187.187 0 01-.274.255zm-.151-.711a.187.187 0 11.273-.255.187.187 0 01-.273.255zm-.152-.711a.187.187 0 11.274-.255.187.187 0 01-.274.255zm-.638.596a.187.187 0 11.273-.255.187.187 0 01-.273.255zm1.375-1.453a.187.187 0 11.273-.255.187.187 0 01-.273.255zm-.152-.711a.187.187 0 11.274-.255.187.187 0 01-.274.255zm-.639.596a.187.187 0 11.274-.255.187.187 0 01-.274.255zm-.151-.712a.187.187 0 11.274-.254.187.187 0 01-.274.255zm-.151-.71a.187.187 0 11.274-.255.187.187 0 01-.274.255zm-.639.595a.187.187 0 11.274-.255.187.187 0 01-.274.255zm.205 1.684a.187.187 0 11.274-.255.187.187 0 01-.274.255zm-.152-.711a.187.187 0 11.275-.255.187.187 0 01-.274.255zm-.638.596a.187.187 0 11.274-.255.187.187 0 01-.274.255zm-.152-.712a.187.187 0 11.274-.254.187.187 0 01-.273.255zm-.15-.711a.187.187 0 11.273-.254.187.187 0 01-.274.255zm-.64.596a.187.187 0 11.275-.254.187.187 0 01-.274.254zm1.383-1.629a.187.187 0 11.273-.255.187.187 0 01-.273.255zm-.152-.711a.187.187 0 11.274-.255.187.187 0 01-.274.255zm-.638.596a.187.187 0 11.273-.255.187.187 0 01-.273.255zm-.152-.711a.187.187 0 11.274-.255.187.187 0 01-.274.255zm-.151-.712a.187.187 0 11.274-.254.187.187 0 01-.274.255zm-.639.597a.187.187 0 11.274-.255.187.187 0 01-.274.255z" opacity=".1" fill="#000"/><path d="M25.529 17.476S10.243 49.621 42.098 53.665l-26.005 2.022-2.242-16.626-.449-13.705 12.127-7.88z" fill="#000" fill-opacity=".05"/><path d="M38.915 20.289s8.598 1.39 10.717 7.372l-1.247-7.622-6.105-2.246-3.365 2.496z" fill="#000" fill-opacity=".04"/><path d="M30.61 44.38l4.643-.276 5.12.932.605 3.805-5.4 1.146-5.94-1.645.972-3.962z" fill="#F9CCB6"/></g><path fill-rule="evenodd" clip-rule="evenodd" d="M42.689 36.167c1.475-.181 2.564-1.202 2.432-2.28-.132-1.077-1.435-1.804-2.91-1.622-1.476.181-2.432 2.28-2.432 2.28s1.435 1.804 2.91 1.622zm-15.335-.009c1.468.233 2.965-1.52 2.965-1.52s-.883-2.13-2.35-2.364c-1.469-.233-2.796.448-2.966 1.52-.17 1.073.883 2.13 2.351 2.364z" fill="#fff"/><path fill-rule="evenodd" clip-rule="evenodd" d="M42.456 35.18c.52 0 .941-.423.941-.945a.943.943 0 00-.941-.944.943.943 0 00-.941.944c0 .522.421.944.941.944z" fill="#363A50"/><path d="M49.823 34.79a1.411 1.411 0 011.993.139v0c.512.59.449 1.483-.14 1.996" stroke="#363A50" stroke-width=".55" stroke-linecap="round"/><path fill-rule="evenodd" clip-rule="evenodd" d="M27.834 35.067c.52 0 .941-.423.941-.944a.943.943 0 10-1.883 0c0 .521.422.944.942.944z" fill="#363A50"/><path d="M33.31 42.204c0 1.042 1.828 1.886 1.828 1.886 1.01 0 1.828-.844 1.828-1.886" stroke="#363A50" stroke-width="1.084" stroke-linecap="round"/><path fill-rule="evenodd" clip-rule="evenodd" d="M33.51 41.632s1.625-3.224 1.625-4.997c0-1.773 1.463 4.675 1.463 4.675l-.813 2.418-1.95-.645-.325-1.45z" fill="#000" fill-opacity=".05"/><path fill-rule="evenodd" clip-rule="evenodd" d="M37.282 43.542a.935.935 0 10-.001-1.87.935.935 0 00.001 1.87zm-4.236.125a.935.935 0 10-.002-1.87.935.935 0 00.002 1.87z" fill="#000" fill-opacity=".1"/><path fill-rule="evenodd" clip-rule="evenodd" d="M18.316 36.573s2.06-15.822 3.293-15.822 20.744-1.16 20.744-1.16.527.072 1.278.2c1.875.323 5.153 2.258 5.153 3.117 0 1.203 1.687 14.188 1.687 14.188s2.053-12.162.544-17.797c-.137-.51-2.8-2.242-3.008-2.691-2.52-5.42-12.91-9.528-12.91-9.528s-.397 1.356-10.642 6.178c-8.577 4.038-5.931 20.976-5.931 20.976l-.208 2.34z" fill="#886653" stroke="#363A50" stroke-width="1.371"/><mask id="i" maskUnits="userSpaceOnUse" x="17" y="6" width="36" height="32"><path fill-rule="evenodd" clip-rule="evenodd" d="M18.316 36.573s2.06-15.822 3.293-15.822 20.744-1.16 20.744-1.16.527.072 1.278.2c1.875.323 5.153 2.258 5.153 3.117 0 1.203 1.687 14.188 1.687 14.188s2.053-12.162.544-17.797c-.137-.51-2.8-2.242-3.008-2.691-2.52-5.42-12.91-9.528-12.91-9.528s-.397 1.356-10.642 6.178c-8.577 4.038-5.931 20.976-5.931 20.976l-.208 2.34z" fill="#fff" stroke="#fff" stroke-width="1.371"/></mask><g mask="url(#i)" fill-rule="evenodd" clip-rule="evenodd"><path d="M18.316 36.573s2.06-15.822 3.293-15.822 20.744-1.16 20.744-1.16.527.072 1.278.2c1.875.323 5.153 2.258 5.153 3.117 0 1.203 1.687 14.188 1.687 14.188s2.053-12.162.544-17.797c-.137-.51-2.8-2.242-3.008-2.691-2.52-5.42-12.91-9.528-12.91-9.528s-.397 1.356-10.642 6.178c-8.577 4.038-5.931 20.976-5.931 20.976l-.208 2.34z" fill="#886653" stroke="#363A50" stroke-width="1.371"/><path d="M30.765 20.541s5.443-5.44 7.25-5.44c1.808 0-3.247-11.903-5.249-11.903-2.001 0 26.807 9.624 26.807 9.624l-4.242 24.711-7.847-5.115-16.72-11.877z" fill="#000" fill-opacity=".1"/></g><path fill-rule="evenodd" clip-rule="evenodd" d="M36.5 34.896a3.489 3.489 0 013.392-4.31h5.014a4.492 4.492 0 014.486 4.493c0 3.441-2.79 6.24-6.23 6.24h-.204a6.23 6.23 0 01-6.056-4.765l-.401-1.658z" fill="#363A50"/><mask id="j" maskUnits="userSpaceOnUse" x="36" y="30" width="14" height="12"><path fill-rule="evenodd" clip-rule="evenodd" d="M36.5 34.896a3.489 3.489 0 013.392-4.31h5.014a4.492 4.492 0 014.486 4.493c0 3.441-2.79 6.24-6.23 6.24h-.204a6.23 6.23 0 01-6.056-4.765l-.401-1.658z" fill="#fff"/></mask><g mask="url(#j)" fill-rule="evenodd" clip-rule="evenodd"><path d="M36.5 34.896a3.489 3.489 0 013.392-4.31h5.014a4.492 4.492 0 014.486 4.493c0 3.441-2.79 6.24-6.23 6.24h-.204a6.23 6.23 0 01-6.056-4.765l-.401-1.658z" fill="#363A50"/><path opacity=".4" d="M36.473 28.857L49.2 41.93l5.973-6.406-11.428-8.93-7.272 2.264z" fill="#000" fill-opacity=".2"/></g><path fill-rule="evenodd" clip-rule="evenodd" d="M33.001 34.896a3.49 3.49 0 00-3.391-4.31h-5.014a4.492 4.492 0 00-4.486 4.493c0 3.441 2.79 6.24 6.23 6.24h.204a6.23 6.23 0 006.056-4.765l.401-1.658z" fill="#363A50"/><mask id="k" maskUnits="userSpaceOnUse" x="20" y="30" width="14" height="12"><path fill-rule="evenodd" clip-rule="evenodd" d="M33.001 34.896a3.49 3.49 0 00-3.391-4.31h-5.014a4.492 4.492 0 00-4.486 4.493c0 3.441 2.79 6.24 6.23 6.24h.204a6.23 6.23 0 006.056-4.765l.401-1.658z" fill="#fff"/></mask><g mask="url(#k)" fill-rule="evenodd" clip-rule="evenodd"><path d="M33.001 34.896a3.49 3.49 0 00-3.391-4.31h-5.014a4.492 4.492 0 00-4.486 4.493c0 3.441 2.79 6.24 6.23 6.24h.204a6.23 6.23 0 006.056-4.765l.401-1.658z" fill="#363A50"/><path opacity=".4" d="M18.863 25.364L31.59 38.435l5.974-6.405-11.428-8.931-7.273 2.265z" fill="#000" fill-opacity=".2"/></g><rect x="32.57" y="32.584" width="4.984" height="1.747" rx=".874" fill="#363A50"/><path fill-rule="evenodd" clip-rule="evenodd" d="M47.561 32.642a.874.874 0 01.708-1.012l3.189-.563a.874.874 0 01.303 1.72l-3.188.564a.874.874 0 01-1.012-.709zm-24.978-.129a.874.874 0 00-.76-.973l-3.214-.395a.874.874 0 10-.213 1.734l3.213.395a.874.874 0 00.974-.761z" fill="#363A50"/><path d="M30.315 46.575l5.172-.184 4.208.868" stroke="#363A50" stroke-width="1.121" stroke-linecap="round"/></g></svg>