<svg width="70" height="70" fill="none" xmlns="http://www.w3.org/2000/svg"><path fill-rule="evenodd" clip-rule="evenodd" d="M35 70c19.33 0 35-15.67 35-35S54.33 0 35 0 0 15.67 0 35s15.67 35 35 35z" fill="#F1F0F0"/><mask id="a" maskUnits="userSpaceOnUse" x="0" y="0" width="70" height="70"><path fill-rule="evenodd" clip-rule="evenodd" d="M35 70c19.33 0 35-15.67 35-35S54.33 0 35 0 0 15.67 0 35s15.67 35 35 35z" fill="#fff"/></mask><g mask="url(#a)"><path d="M15.563 66.078c0-6.086 4.933-11.02 11.02-11.02h17.13c6.087 0 11.02 4.934 11.02 11.02v18.273h-39.17V66.079z" fill="#F15165" stroke="#363A50" stroke-width="1.259"/><mask id="b" maskUnits="userSpaceOnUse" x="14" y="54" width="42" height="31"><path d="M15.563 66.078c0-6.086 4.933-11.02 11.02-11.02h17.13c6.087 0 11.02 4.934 11.02 11.02v18.273h-39.17V66.079z" fill="#fff" stroke="#fff" stroke-width="1.259"/></mask><g mask="url(#b)"><path d="M15.563 66.078c0-6.086 4.933-11.02 11.02-11.02h17.13c6.087 0 11.02 4.934 11.02 11.02v18.273h-39.17V66.079z" fill="#363A50" stroke="#363A50" stroke-width="1.259"/><path fill-rule="evenodd" clip-rule="evenodd" d="M31.924 56.664L22.4 65.695a1.13 1.13 0 00-.35.816v15.62h25.573V65.878a1.12 1.12 0 00-.32-.785l-8.507-8.714-6.873.286z" fill="#E72F47"/><mask id="c" maskUnits="userSpaceOnUse" x="22" y="56" width="26" height="27"><path fill-rule="evenodd" clip-rule="evenodd" d="M31.924 56.664L22.4 65.695a1.13 1.13 0 00-.35.816v15.62h25.573V65.878a1.12 1.12 0 00-.32-.785l-8.507-8.714-6.873.286z" fill="#fff"/></mask><g mask="url(#c)" fill-rule="evenodd" clip-rule="evenodd"><path d="M31.924 56.664L22.4 65.695a1.13 1.13 0 00-.35.816v15.62h25.573V65.878a1.12 1.12 0 00-.32-.785l-8.507-8.714-6.873.286z" fill="#F7334C"/><path d="M35.103 58.271s6.373 6.747 7.747 10.37c1.374 3.624-5.123 13.37-5.123 13.37l18.992.124 3.748-20.24s-8.121-9.122-8.87-9.122c-.75 0-7.373-1.249-7.373-1.249l-9.12 6.747z" fill="#000" fill-opacity=".1"/></g><path fill-rule="evenodd" clip-rule="evenodd" d="M39.576 55.09s19.367.43 14.619 26.612l1.749-.181.625-17.492-2.125-9.371-5.372-2.25-9.496 2.681z" fill="#000" fill-opacity=".1"/><path fill-rule="evenodd" clip-rule="evenodd" d="M20.734 80.485l1.25-14.869.125 14.505-1.375.364z" fill="#000" fill-opacity=".2"/></g><path d="M54.846 36.473a4.092 4.092 0 01-4.09 4.095 4.093 4.093 0 01-4.089-4.095 4.093 4.093 0 014.09-4.096 4.092 4.092 0 014.09 4.096z" fill="#F9CCB6" stroke="#363A50" stroke-width="1.574"/><path fill-rule="evenodd" clip-rule="evenodd" d="M51.377 38.837a1.75 1.75 0 100-3.499 1.75 1.75 0 000 3.5z" fill="#000" fill-opacity=".1"/><path d="M23.225 36.473a4.092 4.092 0 01-4.09 4.095 4.093 4.093 0 01-4.09-4.095 4.093 4.093 0 014.09-4.096 4.092 4.092 0 014.09 4.096z" fill="#F9CCB6" stroke="#363A50" stroke-width="1.574"/><path fill-rule="evenodd" clip-rule="evenodd" d="M18.132 38.587a1.75 1.75 0 100-3.498 1.75 1.75 0 000 3.498z" fill="#000" fill-opacity=".1"/><rect x="31.518" y="48.037" width="7.842" height="9.975" rx="3.921" fill="#F9CCB6" stroke="#363A50" stroke-width="1.574"/><mask id="d" maskUnits="userSpaceOnUse" x="30" y="47" width="11" height="12"><rect x="31.518" y="48.037" width="7.842" height="9.975" rx="3.921" fill="#fff" stroke="#fff" stroke-width="1.574"/></mask><g mask="url(#d)"><rect x="30.507" y="45.45" width="9.753" height="13.073" rx="4.877" fill="#F9CCB6"/><path fill-rule="evenodd" clip-rule="evenodd" d="M33.273 50.324s-1.349 4.274 2.136 6.523c3.486 2.25-.674 2.137-.674 2.137l-4.61-3.824-.112-4.16 3.26-.675z" fill="#F8CCB8"/><path fill-rule="evenodd" clip-rule="evenodd" d="M37.211 51.08s1.624 6.748-4.123 5.248l1 1.625 4.123-1 2.124-3.498-1-2.374h-2.124z" fill="#000" fill-opacity=".05"/></g><path fill-rule="evenodd" clip-rule="evenodd" d="M18.226 30.519c.536-8.866 7.882-15.781 16.764-15.781s16.229 6.915 16.765 15.78l.203 3.364c.592 9.775-7.176 18.026-16.968 18.026s-17.56-8.252-16.968-18.026l.204-3.363z" fill="#F9CCB6"/><mask id="e" maskUnits="userSpaceOnUse" x="17" y="14" width="35" height="38"><path fill-rule="evenodd" clip-rule="evenodd" d="M18.226 30.519c.536-8.866 7.882-15.781 16.764-15.781s16.229 6.915 16.765 15.78l.203 3.364c.592 9.775-7.176 18.026-16.968 18.026s-17.56-8.252-16.968-18.026l.204-3.363z" fill="#fff"/></mask><g mask="url(#e)"><path d="M36.574 51.12h-.001 0-.002 0-.002 0-.013 0-.002 0-.007 0-.006 0-1.405c-9.444 0-16.988-8.077-16.53-17.53.373-7.717 6.16-14.218 13.787-15.343 9.456-1.394 18.049 5.68 18.496 15.228l.078 1.65c.392 8.376-6.027 15.506-14.394 15.996z" fill="#F9CCB6" stroke="#363A50" stroke-width="1.574"/><path fill-rule="evenodd" clip-rule="evenodd" d="M29.17 24.345c10.034 0 18.17-2.574 18.17-5.749s-8.136-5.748-18.17-5.748C19.135 12.848 11 15.42 11 18.596c0 3.175 8.135 5.75 18.17 5.75z" fill="#F8C4AC"/><path fill-rule="evenodd" clip-rule="evenodd" d="M48.31 31.364s1.25 23.49-25.863 16.493l12.745 3.998 14.743-2.249 2.124-9.62v-7.122l-3.748-1.5z" fill="#000" fill-opacity=".05"/></g><path fill-rule="evenodd" clip-rule="evenodd" d="M44.03 35.438c-1.472.233-2.973-1.522-2.973-1.522s.885-2.132 2.357-2.365c1.472-.234 2.973 1.521 2.973 1.521s-.885 2.133-2.357 2.366z" fill="#fff"/><path fill-rule="evenodd" clip-rule="evenodd" d="M45.497 36.126s-1.624 1.75-4.498.25l4.498-.25zm-21.99 0s1.624 1.75 4.498.25l-4.498-.25z" fill="#000" fill-opacity=".03"/><path d="M45.241 27.47c-.783-1.357-2.942-1.576-4.823-.49m-15.732.49c.783-1.357 2.943-1.576 4.824-.49" stroke="#363A50" stroke-width="1.102" stroke-linecap="round"/><path d="M48.989 31.224l-.042.535.482.235 2.11 1.027 1.336.65-.213-1.47-2.098-14.496-.048-.333-.275-.196-.456.642.456-.642h-.001l-.002-.002-.007-.005-.027-.019-.103-.072a110.077 110.077 0 00-1.817-1.241 106.996 106.996 0 00-4.549-2.886c-1.728-1.032-3.58-2.052-5.224-2.768-.82-.359-1.608-.65-2.314-.826-.686-.172-1.382-.26-1.979-.124-1.743.397-4.613 1.468-7.5 3.043-2.883 1.572-5.874 3.694-7.782 6.234l-.134.179-.02.223-1.131 12.425-.089.974.97-.122 2.4-.302.543-.068.125-.532 2.18-9.239.21.039c.605.11 1.465.263 2.49.431 2.05.337 4.768.736 7.426.987 2.64.25 5.288.358 7.168.085.915-.133 1.794-.375 2.375-.856.285-.236.517-.545.623-.933.611.223 1.416.61 2.197 1.261 1.528 1.274 3.078 3.654 2.72 8.162z" fill="#886653" stroke="#363A4F" stroke-width="1.574"/><mask id="f" maskUnits="userSpaceOnUse" x="16" y="8" width="38" height="28"><path d="M48.989 31.224l-.042.535.482.235 2.11 1.027 1.336.65-.213-1.47-2.098-14.496-.048-.333-.275-.196-.456.642.456-.642h-.001l-.002-.002-.007-.005-.027-.019-.103-.072a110.077 110.077 0 00-1.817-1.241 106.996 106.996 0 00-4.549-2.886c-1.728-1.032-3.58-2.052-5.224-2.768-.82-.359-1.608-.65-2.314-.826-.686-.172-1.382-.26-1.979-.124-1.743.397-4.613 1.468-7.5 3.043-2.883 1.572-5.874 3.694-7.782 6.234l-.134.179-.02.223-1.131 12.425-.089.974.97-.122 2.4-.302.543-.068.125-.532 2.18-9.239.21.039c.605.11 1.465.263 2.49.431 2.05.337 4.768.736 7.426.987 2.64.25 5.288.358 7.168.085.915-.133 1.794-.375 2.375-.856.285-.236.517-.545.623-.933.611.223 1.416.61 2.197 1.261 1.528 1.274 3.078 3.654 2.72 8.162z" fill="#fff" stroke="#fff" stroke-width="1.574"/></mask><g mask="url(#f)"><path fill-rule="evenodd" clip-rule="evenodd" d="M42.43 18.034s8.817 3.791 8.03 13.702l2.203 1.073.157-17.483s-2.045-4.253-5.506-3.465c-3.46.787-5.184-15.278-29.096 3.307 0 0-2.29 4.703 2.901 6.12l-3.38 10.575 2.506-.314 2.456-10.06s16.584 1.427 19.73-3.456z" fill="#886653"/><path opacity=".6" d="M31.144 32.779c1.922-.938 2-4.737.171-8.485v0c-1.828-3.749-4.869-6.027-6.792-5.09M36.65 30.259c1.922-.938 2-4.737.17-8.485v0c-1.827-3.749-4.868-6.027-6.79-5.09m11.34 10.424c1.922-.937 1.999-4.736.17-8.484v0c-1.828-3.749-4.868-6.027-6.791-5.09" stroke="#664C3C" stroke-width="1.102" stroke-linecap="round"/></g><path fill-rule="evenodd" clip-rule="evenodd" d="M43.721 34.268a.944.944 0 100-1.89.944.944 0 000 1.89z" fill="#363A50"/><path d="M33.093 40.118s.893 1.434 1.995 1.434c1.101 0 1.995-1.434 1.995-1.434" stroke="#363A50" stroke-width="1.102" stroke-linecap="round"/><path d="M16.922 35.883a1.417 1.417 0 011.944.483v0c.403.67.185 1.54-.486 1.944m32.666-2.52a1.417 1.417 0 011.999.14v0c.513.59.45 1.484-.141 1.998" stroke="#363A50" stroke-width=".648" stroke-linecap="round"/><path d="M32.861 44.88c0 .87 1.68.525 3.753.525" stroke="#363A50" stroke-width="1.102" stroke-linecap="round"/><path fill-rule="evenodd" clip-rule="evenodd" d="M33.236 46.754h2.5l-1.25 1.24-1.25-1.24z" fill="#000" fill-opacity=".05"/><path fill-rule="evenodd" clip-rule="evenodd" d="M26.296 35.438c1.472.233 2.973-1.522 2.973-1.522s-.885-2.132-2.357-2.365c-1.472-.234-2.973 1.521-2.973 1.521s.886 2.133 2.357 2.366z" fill="#fff"/><path fill-rule="evenodd" clip-rule="evenodd" d="M26.575 34.268a.944.944 0 10-.001-1.89.944.944 0 000 1.89z" fill="#363A50"/><path fill-rule="evenodd" clip-rule="evenodd" d="M18.531 13.542a4.883 4.883 0 013.526-4.091c3.995-1.107 10.729-2.858 13.337-2.858 2.356 0 8.61 1.72 12.395 2.828 1.86.544 3.201 2.146 3.452 4.068l1.347 10.323a4.973 4.973 0 01-4.931 5.616H22.122a4.972 4.972 0 01-4.93-5.616l1.34-10.27z" fill="#fff"/><mask id="g" maskUnits="userSpaceOnUse" x="17" y="6" width="36" height="24"><path fill-rule="evenodd" clip-rule="evenodd" d="M18.531 13.542a4.883 4.883 0 013.526-4.091c3.995-1.107 10.729-2.858 13.337-2.858 2.356 0 8.61 1.72 12.395 2.828 1.86.544 3.201 2.146 3.452 4.068l1.347 10.323a4.973 4.973 0 01-4.931 5.616H22.122a4.972 4.972 0 01-4.93-5.616l1.34-10.27z" fill="#fff"/></mask><g mask="url(#g)"><path d="M19.089 13.614a4.32 4.32 0 013.118-3.621 172.21 172.21 0 017.164-1.838c2.52-.58 4.793-1 6.023-1 1.099 0 3.184.41 5.528.982 2.32.566 4.82 1.27 6.709 1.823a4.314 4.314 0 013.052 3.601l1.347 10.324a4.41 4.41 0 01-4.373 4.98H22.122a4.41 4.41 0 01-4.373-4.98l1.34-10.27z" fill="#fff" stroke="#363A50" stroke-width="1.125"/><path fill-rule="evenodd" clip-rule="evenodd" d="M42.459 5.937s8.628 10.256 5.888 16.601C35.562 17.24 18.426 25.22 18.426 25.22l-7.118 8.032 49.649-3.647-7.78-20.782-10.718-2.885z" fill="#000" fill-opacity=".1"/></g><path fill-rule="evenodd" clip-rule="evenodd" d="M17.352 26.955s13.346-8.67 34.865.25l-4.3 4.802s-8.616-2.024-13.373-2.024c-4.348 0-13.042 1.125-13.042 1.125l-4.15-4.153z" fill="#A29D9D"/><mask id="h" maskUnits="userSpaceOnUse" x="17" y="23" width="36" height="10"><path fill-rule="evenodd" clip-rule="evenodd" d="M17.352 26.955s13.346-8.67 34.865.25l-4.3 4.802s-8.616-2.024-13.373-2.024c-4.348 0-13.042 1.125-13.042 1.125l-4.15-4.153z" fill="#fff"/></mask><g mask="url(#h)"><path d="M18.269 27.077c.392-.21.97-.5 1.725-.82 1.552-.658 3.852-1.45 6.818-1.968 5.79-1.01 14.137-.983 24.454 3.136l-3.546 3.96a121.08 121.08 0 00-4.603-.943c-2.75-.506-6.138-1.021-8.573-1.021-2.206 0-5.493.284-8.21.565a225.976 225.976 0 00-4.52.515l-.11.014-3.435-3.438z" fill="#F7334C" stroke="#363A50" stroke-width="1.125" stroke-linecap="round"/><path fill-rule="evenodd" clip-rule="evenodd" d="M39.819 23.84s-4.373 3.377-19.367 6.626C5.46 33.714 48.566 32.59 48.566 32.59l4.873-6.372-13.62-2.379z" fill="#000" fill-opacity=".05"/></g><path fill-rule="evenodd" clip-rule="evenodd" d="M33.447 39.855s3.249 1.5 1.624-5.372l2 5.123-1.874 1.874-1.75-1.625z" fill="#000" fill-opacity=".05"/><path fill-rule="evenodd" clip-rule="evenodd" d="M45.1 53.881a2.242 2.242 0 00-2.213.955c-1.694 2.498-5.652 8.339-7.642 11.337-3.776 5.689-12.423 16.094-12.423 16.094l8.356-.112s5.895-8.143 8.535-12.264c1.923-3 5.784-8.826 8.125-12.348.908-1.365.097-3.21-1.521-3.468l-1.218-.194z" fill="#32343E"/><rect x="36.489" y="63.57" width="6.971" height="9.447" rx="1.125" transform="rotate(36 36.49 63.57)" fill="#464646" stroke="#393A42" stroke-width="1.349"/><path fill-rule="evenodd" clip-rule="evenodd" d="M37.359 64.518l1.374 3.873-2.374 5.998 5.373-6.622-4.373-3.249z" fill="#000" fill-opacity=".1"/></g></svg>